<svg width="99" height="99" viewBox="0 0 99 99" fill="none" xmlns="http://www.w3.org/2000/svg">
<path d="M56.5 0.5H42.5C39.7386 0.5 37.5 2.73858 37.5 5.5V35C37.5 36.3807 36.3807 37.5 35 37.5H5.5C2.73858 37.5 0.5 39.7386 0.5 42.5V56.5C0.5 59.2614 2.73858 61.5 5.5 61.5H35C36.3807 61.5 37.5 62.6193 37.5 64V93.5C37.5 96.2614 39.7386 98.5 42.5 98.5H56.5C59.2614 98.5 61.5 96.2614 61.5 93.5V64C61.5 62.6193 62.6193 61.5 64 61.5H93.5C96.2614 61.5 98.5 59.2614 98.5 56.5V42.5C98.5 39.7386 96.2614 37.5 93.5 37.5H64C62.6193 37.5 61.5 36.3807 61.5 35V5.5C61.5 2.73858 59.2614 0.5 56.5 0.5Z" fill="#D1D5FF" stroke="black" stroke-linejoin="round"/>
</svg>
